#Comment line ignore any data following # character 
#Hierarchical Translation and Rotation (.htr) file 
[Header]	
#Header keywords are followed by a single value 
FileType HTR		#Single word string
DataType HTRS		#Translation followed by rotation and scale data
FileVersion 1		#integer
NumSegments 84		#integer
NumFrames 2		#integer
DataFrameRate 30		#integer, data frame rate in this file
EulerRotationOrder ZYX
CalibrationUnits mm
RotationUnits Degrees
GlobalAxisofGravity Y
BoneLengthAxis Y
ScaleFactor 1.00
[SegmentNames&Hierarchy]
#CHILD	PARENT
MASTER GLOBAL
root MASTER
chest root
L_mid_tent01 root
R_mid_tent01 root
spine01 root
Bip01_Neck chest
L_humerus chest
R_humerus chest
weapon_bone chest
Bip01_Head Bip01_Neck
eye_left_bone Bip01_Head
eye_right_bone Bip01_Head
L_forearm L_humerus
L_front_hand L_forearm
L_weapon_bone L_forearm
L_front_hand01_01 L_front_hand
L_front_hand02_01 L_front_hand
L_front_hand03_01 L_front_hand
L_front_hand01_02 L_front_hand01_01
L_front_hand02_02 L_front_hand02_01
L_front_hand03_02 L_front_hand03_01
R_forearm R_humerus
R_front_hand R_forearm
R_weapon_bone R_forearm
R_front_hand01_01 R_front_hand
R_front_hand02_01 R_front_hand
R_front_hand03_01 R_front_hand
R_front_hand01_02 R_front_hand01_01
R_front_hand02_02 R_front_hand02_01
R_front_hand03_02 R_front_hand03_01
null_rope01_connect L_mid_tent01
Rope1_Seg01 null_rope01_connect
Rope1_Seg02 Rope1_Seg01
Rope1_Seg03 Rope1_Seg02
Rope1_Seg04 Rope1_Seg03
Rope1_Seg05 Rope1_Seg04
Rope1_Seg06 Rope1_Seg05
Rope1_Seg07 Rope1_Seg06
Rope1_Seg09 Rope1_Seg07
L_mid_hand01 Rope1_Seg09
L_mid_hand02 Rope1_Seg09
L_mid_hand03 Rope1_Seg09
null_rope02_connect R_mid_tent01
Rope2_Seg01 null_rope02_connect
Rope2_Seg02 Rope2_Seg01
Rope2_Seg03 Rope2_Seg02
Rope2_Seg04 Rope2_Seg03
Rope2_Seg05 Rope2_Seg04
Rope2_Seg06 Rope2_Seg05
Rope2_Seg07 Rope2_Seg06
Rope2_Seg09 Rope2_Seg07
R_mid_hand01 Rope2_Seg09
R_mid_hand02 Rope2_Seg09
R_mid_hand03 Rope2_Seg09
spine02 spine01
spine03 spine02
pelvis spine03
null_rope03_connect pelvis
null_rope04_connect pelvis
Rope3_Seg01 null_rope03_connect
Rope3_Seg02 Rope3_Seg01
Rope3_Seg03 Rope3_Seg02
Rope3_Seg04 Rope3_Seg03
Rope3_Seg05 Rope3_Seg04
Rope3_Seg06 Rope3_Seg05
Rope3_Seg07 Rope3_Seg06
Rope3_Seg08 Rope3_Seg07
Rope3_Seg09 Rope3_Seg08
R_rear_hand01 Rope3_Seg09
R_rear_hand02 Rope3_Seg09
R_rear_hand03 Rope3_Seg09
Rope4_Seg01 null_rope04_connect
Rope4_Seg02 Rope4_Seg01
Rope4_Seg03 Rope4_Seg02
Rope4_Seg04 Rope4_Seg03
Rope4_Seg05 Rope4_Seg04
Rope4_Seg06 Rope4_Seg05
Rope4_Seg07 Rope4_Seg06
Rope4_Seg08 Rope4_Seg07
Rope4_Seg09 Rope4_Seg08
L_rear_hand01 Rope4_Seg09
L_rear_hand02 Rope4_Seg09
L_rear_hand03 Rope4_Seg09
[BasePosition]
#SegmentName Tx, Ty, Tz, Rx, Ry, Rz, BoneLength
MASTER 0.000000 0.000000 0.000000 -90.000000 0.000000 0.000000 10.000000 
root 0.000000 0.000000 0.000000 0.000000 0.000000 0.000000 10.000000 
chest 0.000000 0.000000 0.000000 0.000000 0.000000 0.000000 10.000000 
L_mid_tent01 0.000000 0.000000 0.000000 0.000000 0.000000 0.000000 10.000000 
R_mid_tent01 0.000000 0.000000 0.000000 0.000000 0.000000 0.000000 10.000000 
spine01 0.000000 0.000000 0.000000 0.000000 0.000000 0.000000 10.000000 
Bip01_Neck 0.000000 0.000000 0.000000 0.000000 0.000000 0.000000 10.000000 
L_humerus 0.000000 0.000000 0.000000 0.000000 0.000000 0.000000 10.000000 
R_humerus 0.000000 0.000000 0.000000 0.000000 0.000000 0.000000 10.000000 
weapon_bone 0.000000 0.000000 0.000000 0.000000 0.000000 0.000000 10.000000 
Bip01_Head 0.000000 0.000000 0.000000 0.000000 0.000000 0.000000 10.000000 
eye_left_bone 0.000000 0.000000 0.000000 0.000000 0.000000 0.000000 10.000000 
eye_right_bone 0.000000 0.000000 0.000000 0.000000 0.000000 0.000000 10.000000 
L_forearm 0.000000 0.000000 0.000000 0.000000 0.000000 0.000000 10.000000 
L_front_hand 0.000000 0.000000 0.000000 0.000000 0.000000 0.000000 10.000000 
L_weapon_bone 0.000000 0.000000 0.000000 0.000000 0.000000 0.000000 10.000000 
L_front_hand01_01 0.000000 0.000000 0.000000 0.000000 0.000000 0.000000 10.000000 
L_front_hand02_01 0.000000 0.000000 0.000000 0.000000 0.000000 0.000000 10.000000 
L_front_hand03_01 0.000000 0.000000 0.000000 0.000000 0.000000 0.000000 10.000000 
L_front_hand01_02 0.000000 0.000000 0.000000 0.000000 0.000000 0.000000 10.000000 
L_front_hand02_02 0.000000 0.000000 0.000000 0.000000 0.000000 0.000000 10.000000 
L_front_hand03_02 0.000000 0.000000 0.000000 0.000000 0.000000 0.000000 10.000000 
R_forearm 0.000000 0.000000 0.000000 0.000000 0.000000 0.000000 10.000000 
R_front_hand 0.000000 0.000000 0.000000 0.000000 0.000000 0.000000 10.000000 
R_weapon_bone 0.000000 0.000000 0.000000 0.000000 0.000000 0.000000 10.000000 
R_front_hand01_01 0.000000 0.000000 0.000000 0.000000 0.000000 0.000000 10.000000 
R_front_hand02_01 0.000000 0.000000 0.000000 0.000000 0.000000 0.000000 10.000000 
R_front_hand03_01 0.000000 0.000000 0.000000 0.000000 0.000000 0.000000 10.000000 
R_front_hand01_02 0.000000 0.000000 0.000000 0.000000 0.000000 0.000000 10.000000 
R_front_hand02_02 0.000000 0.000000 0.000000 0.000000 0.000000 0.000000 10.000000 
R_front_hand03_02 0.000000 0.000000 0.000000 0.000000 0.000000 0.000000 10.000000 
null_rope01_connect 0.000000 0.000000 0.000000 0.000000 0.000000 0.000000 10.000000 
Rope1_Seg01 0.000000 0.000000 0.000000 0.000000 0.000000 0.000000 10.000000 
Rope1_Seg02 0.000000 0.000000 0.000000 0.000000 0.000000 0.000000 10.000000 
Rope1_Seg03 0.000000 0.000000 0.000000 0.000000 0.000000 0.000000 10.000000 
Rope1_Seg04 0.000000 0.000000 0.000000 0.000000 0.000000 0.000000 10.000000 
Rope1_Seg05 0.000000 0.000000 0.000000 0.000000 0.000000 0.000000 10.000000 
Rope1_Seg06 0.000000 0.000000 0.000000 0.000000 0.000000 0.000000 10.000000 
Rope1_Seg07 0.000000 0.000000 0.000000 0.000000 0.000000 0.000000 10.000000 
Rope1_Seg09 0.000000 0.000000 0.000000 0.000000 0.000000 0.000000 10.000000 
L_mid_hand01 0.000000 0.000000 0.000000 0.000000 0.000000 0.000000 10.000000 
L_mid_hand02 0.000000 0.000000 0.000000 0.000000 0.000000 0.000000 10.000000 
L_mid_hand03 0.000000 0.000000 0.000000 0.000000 0.000000 0.000000 10.000000 
null_rope02_connect 0.000000 0.000000 0.000000 0.000000 0.000000 0.000000 10.000000 
Rope2_Seg01 0.000000 0.000000 0.000000 0.000000 0.000000 0.000000 10.000000 
Rope2_Seg02 0.000000 0.000000 0.000000 0.000000 0.000000 0.000000 10.000000 
Rope2_Seg03 0.000000 0.000000 0.000000 0.000000 0.000000 0.000000 10.000000 
Rope2_Seg04 0.000000 0.000000 0.000000 0.000000 0.000000 0.000000 10.000000 
Rope2_Seg05 0.000000 0.000000 0.000000 0.000000 0.000000 0.000000 10.000000 
Rope2_Seg06 0.000000 0.000000 0.000000 0.000000 0.000000 0.000000 10.000000 
Rope2_Seg07 0.000000 0.000000 0.000000 0.000000 0.000000 0.000000 10.000000 
Rope2_Seg09 0.000000 0.000000 0.000000 0.000000 0.000000 0.000000 10.000000 
R_mid_hand01 0.000000 0.000000 0.000000 0.000000 0.000000 0.000000 10.000000 
R_mid_hand02 0.000000 0.000000 0.000000 0.000000 0.000000 0.000000 10.000000 
R_mid_hand03 0.000000 0.000000 0.000000 0.000000 0.000000 0.000000 10.000000 
spine02 0.000000 0.000000 0.000000 0.000000 0.000000 0.000000 10.000000 
spine03 0.000000 0.000000 0.000000 0.000000 0.000000 0.000000 10.000000 
pelvis 0.000000 0.000000 0.000000 0.000000 0.000000 0.000000 10.000000 
null_rope03_connect 0.000000 0.000000 0.000000 0.000000 0.000000 0.000000 10.000000 
null_rope04_connect 0.000000 0.000000 0.000000 0.000000 0.000000 0.000000 10.000000 
Rope3_Seg01 0.000000 0.000000 0.000000 0.000000 0.000000 0.000000 10.000000 
Rope3_Seg02 0.000000 0.000000 0.000000 0.000000 0.000000 0.000000 10.000000 
Rope3_Seg03 0.000000 0.000000 0.000000 0.000000 0.000000 0.000000 10.000000 
Rope3_Seg04 0.000000 0.000000 0.000000 0.000000 0.000000 0.000000 10.000000 
Rope3_Seg05 0.000000 0.000000 0.000000 0.000000 0.000000 0.000000 10.000000 
Rope3_Seg06 0.000000 0.000000 0.000000 0.000000 0.000000 0.000000 10.000000 
Rope3_Seg07 0.000000 0.000000 0.000000 0.000000 0.000000 0.000000 10.000000 
Rope3_Seg08 0.000000 0.000000 0.000000 0.000000 0.000000 0.000000 10.000000 
Rope3_Seg09 0.000000 0.000000 0.000000 0.000000 0.000000 0.000000 10.000000 
R_rear_hand01 0.000000 0.000000 0.000000 0.000000 0.000000 0.000000 10.000000 
R_rear_hand02 0.000000 0.000000 0.000000 0.000000 0.000000 0.000000 10.000000 
R_rear_hand03 0.000000 0.000000 0.000000 0.000000 0.000000 0.000000 10.000000 
Rope4_Seg01 0.000000 0.000000 0.000000 0.000000 0.000000 0.000000 10.000000 
Rope4_Seg02 0.000000 0.000000 0.000000 0.000000 0.000000 0.000000 10.000000 
Rope4_Seg03 0.000000 0.000000 0.000000 0.000000 0.000000 0.000000 10.000000 
Rope4_Seg04 0.000000 0.000000 0.000000 0.000000 0.000000 0.000000 10.000000 
Rope4_Seg05 0.000000 0.000000 0.000000 0.000000 0.000000 0.000000 10.000000 
Rope4_Seg06 0.000000 0.000000 0.000000 0.000000 0.000000 0.000000 10.000000 
Rope4_Seg07 0.000000 0.000000 0.000000 0.000000 0.000000 0.000000 10.000000 
Rope4_Seg08 0.000000 0.000000 0.000000 0.000000 0.000000 0.000000 10.000000 
Rope4_Seg09 0.000000 0.000000 0.000000 0.000000 0.000000 0.000000 10.000000 
L_rear_hand01 0.000000 0.000000 0.000000 0.000000 0.000000 0.000000 10.000000 
L_rear_hand02 0.000000 0.000000 0.000000 0.000000 0.000000 0.000000 10.000000 
L_rear_hand03 0.000000 0.000000 0.000000 0.000000 0.000000 0.000000 10.000000 
#Beginning of Data. Separated by tabs
#Fr	Tx	Ty	Tz	Rx	Ry	Rz	SF
[MASTER]
23 -1192.835938 -3930.175049 1295.602905 0.000000 -0.002347 -89.999992 4306.706543
24 -1468.402954 -4068.229736 1262.660522 0.000000 -0.002347 -89.999992 4505.664551
[root]
23 -259.924225 13.849582 582.056641 -179.653793 -0.878698 -169.698120 637.606750
24 -248.837708 16.502384 598.075195 -176.805191 -1.505239 -169.638474 647.986511
[chest]
23 -84.512650 -34.090519 0.000000 -81.438889 -29.867229 -157.007904 91.129311
24 -84.512650 -34.090519 0.000000 -74.432838 -30.052761 -162.116974 91.129311
[L_mid_tent01]
23 27.299257 22.179230 -249.918716 -5.649587 27.278517 45.500950 252.381729
24 27.299263 22.179234 -249.918716 -10.484791 27.222490 21.377050 252.381729
[R_mid_tent01]
23 23.228794 24.509907 226.238495 163.257248 21.088949 65.621529 228.744751
24 23.228794 24.509907 226.238495 163.587936 18.404751 68.006683 228.744751
[spine01]
23 -0.361383 -0.195265 0.000000 0.001956 0.001298 22.871727 0.410763
24 -0.361383 -0.195265 0.000000 0.001956 0.001298 22.852549 0.410763
[Bip01_Neck]
23 165.484543 71.581718 0.000119 176.643677 -1.657967 43.431911 180.302734
24 165.484543 71.581718 0.000119 176.643677 -1.657967 43.431911 180.302734
[L_humerus]
23 -13.983130 -135.272980 -120.471481 172.282440 0.088541 -94.960701 181.680161
24 -13.983130 -135.272980 -120.471481 172.755707 -1.330998 -94.386543 181.680161
[R_humerus]
23 -13.983309 -135.273102 125.287651 -177.013306 3.203669 -85.378258 184.909012
24 -13.983309 -135.273102 125.287651 -177.010178 4.487592 -85.310364 184.909012
[weapon_bone]
23 235.964890 -300.705902 0.000000 0.000000 -89.951546 -128.212341 382.234833
24 235.964890 -300.705902 0.000000 0.000000 -89.951546 -128.212341 382.234833
[Bip01_Head]
23 213.350159 185.977814 8.392328 18.223381 6.152122 -43.833611 283.154510
24 213.356110 185.961334 8.604976 18.223381 6.152122 -43.833611 283.154510
[eye_left_bone]
23 -24.626970 125.451866 -64.772606 0.000000 -90.000000 -99.840431 143.318359
24 -24.626970 125.451866 -64.772606 0.000000 -90.000000 -99.840431 143.318359
[eye_right_bone]
23 -24.626970 125.451866 64.327362 0.000000 -89.972023 80.156380 143.117676
24 -24.626970 125.451866 64.327362 0.000000 -89.965736 80.156380 143.117676
[L_forearm]
23 322.776093 0.000000 -0.000119 0.000430 -0.002307 -111.119781 322.776093
24 322.776093 0.000000 -0.000119 0.000429 -0.002308 -111.077812 322.776093
[L_front_hand]
23 241.149185 -0.042021 -3.300071 -178.667953 -1.835447 -27.422350 241.171753
24 241.149185 -0.042021 -3.300071 -178.667953 -1.835447 -27.422350 241.171753
[L_weapon_bone]
23 156.183838 0.000000 0.000000 0.000014 0.000007 0.000001 156.183838
24 156.183838 0.000000 0.000000 0.000014 0.000007 0.000001 156.183838
[L_front_hand01_01]
23 86.095154 20.947098 -0.655860 -0.366594 -0.477154 75.385574 88.609184
24 86.095154 20.947098 -0.655860 -0.366594 -0.477154 75.385574 88.609184
[L_front_hand02_01]
23 86.935165 -11.437475 24.513514 154.399796 -59.883820 -61.369564 91.046425
24 86.935165 -11.437475 24.513514 154.399796 -59.883820 -61.369579 91.046425
[L_front_hand03_01]
23 86.637497 -14.123976 -20.424902 -153.913849 58.118107 -62.702850 90.126129
24 86.637497 -14.123976 -20.424902 -153.913864 58.118134 -62.702885 90.126129
[L_front_hand01_02]
23 71.020905 -0.000179 0.000030 0.000331 -0.002324 -106.206635 71.020905
24 71.020905 -0.000179 0.000030 0.000332 -0.002324 -106.268463 71.020905
[L_front_hand02_02]
23 71.020927 -0.000119 0.000060 0.000331 -0.002324 -106.206635 71.020927
24 71.020927 -0.000119 0.000060 0.000332 -0.002324 -106.268463 71.020927
[L_front_hand03_02]
23 71.020905 -0.000060 0.000060 0.000331 -0.002324 -106.206635 71.020905
24 71.020905 -0.000060 0.000060 0.000332 -0.002324 -106.268463 71.020905
[R_forearm]
23 322.776428 -0.000060 0.000030 0.201098 0.068194 -109.788902 322.776428
24 322.776428 -0.000060 0.000030 0.201133 0.068094 -109.731438 322.776428
[R_front_hand]
23 238.847015 -0.006795 2.210259 -2.635298 -10.645461 -26.312506 238.857239
24 238.847015 -0.006795 2.210259 -2.635298 -10.645461 -26.312506 238.857239
[R_weapon_bone]
23 155.664093 0.002503 -0.000030 0.003487 0.001180 -90.988930 155.664078
24 155.664093 0.002503 -0.000030 0.003487 0.001180 -90.988930 155.664078
[R_front_hand01_01]
23 87.624611 14.231146 22.918642 -154.633514 -59.950634 61.746063 91.683487
24 87.624611 14.231146 22.918642 -154.633499 -59.950619 61.746044 91.683487
[R_front_hand02_01]
23 89.356956 14.367283 -19.491137 154.602661 58.302849 63.744389 92.579636
24 89.356956 14.367283 -19.491137 154.602661 58.302856 63.744389 92.579636
[R_front_hand03_01]
23 87.286232 -22.307278 -0.143439 0.162155 -0.423168 -75.767921 90.091743
24 87.286232 -22.307278 -0.143439 0.162155 -0.423168 -75.767921 90.091743
[R_front_hand01_02]
23 71.020905 0.000060 0.000119 0.002323 -0.000334 106.381706 71.020905
24 71.020905 0.000060 0.000119 0.002323 -0.000334 106.381706 71.020905
[R_front_hand02_02]
23 71.020844 -0.000030 -0.000119 0.002323 -0.000334 106.381706 71.020836
24 71.020844 -0.000030 -0.000119 0.002323 -0.000334 106.381706 71.020836
[R_front_hand03_02]
23 71.020905 0.000000 0.000030 0.002323 -0.000334 106.381706 71.020905
24 71.020905 0.000000 0.000030 0.002323 -0.000334 106.381706 71.020905
[null_rope01_connect]
23 328.732483 0.000000 -0.000238 159.603516 -19.610670 56.767155 328.732483
24 328.732483 0.000000 -0.000238 154.487335 -12.242725 78.392807 328.732483
[Rope1_Seg01]
23 0.000000 0.000000 0.000000 94.136803 -20.482145 15.664684 0.000000
24 0.000000 0.000000 0.000000 97.962723 -24.363989 7.909612 0.000000
[Rope1_Seg02]
23 139.999863 -0.000179 0.000000 -4.025923 7.320733 3.161194 139.999863
24 139.999863 -0.000179 0.000000 -5.372938 14.692338 10.673991 139.999863
[Rope1_Seg03]
23 139.999924 0.000060 -0.000060 -5.834480 8.440089 7.133888 139.999924
24 139.999924 0.000060 -0.000060 -4.451565 15.611596 26.145462 139.999924
[Rope1_Seg04]
23 139.999924 -0.000060 -0.000119 -4.922633 9.385216 0.968254 139.999924
24 139.999924 -0.000060 -0.000119 -2.806875 15.752085 6.919884 139.999924
[Rope1_Seg05]
23 139.999832 0.000119 -0.000060 -0.835040 5.402877 -5.020403 139.999832
24 139.999832 0.000119 -0.000060 -4.934168 20.595858 -23.536673 139.999832
[Rope1_Seg06]
23 139.999954 0.000119 -0.000060 -1.303826 2.915075 -1.332786 139.999954
24 139.999954 0.000119 -0.000060 -3.457093 9.249726 -7.580228 139.999954
[Rope1_Seg07]
23 139.999985 0.000060 0.000000 -0.921597 1.874790 -0.799932 139.999985
24 139.999985 0.000060 0.000000 -3.147966 4.981276 -3.290262 139.999985
[Rope1_Seg09]
23 121.602913 0.000119 -0.000089 -89.793175 -1.359789 0.847147 121.602913
24 121.602913 0.000119 -0.000089 -89.793175 -1.359789 0.847147 121.602913
[L_mid_hand01]
23 103.859421 1.038730 8.195221 129.753738 -67.188759 -38.008968 104.187431
24 103.859421 1.038730 8.195221 130.544373 -67.584526 -38.866943 104.187431
[L_mid_hand02]
23 105.572853 -4.139662 -10.864139 -168.447937 43.306499 -72.811859 106.211075
24 105.572853 -4.139662 -10.864139 -168.923172 43.409309 -73.498894 106.211075
[L_mid_hand03]
23 104.641464 17.579376 -3.913581 -6.178542 17.755547 74.357048 106.179977
24 104.641464 17.579376 -3.913581 -6.012627 17.808176 74.893669 106.179977
[null_rope02_connect]
23 328.732849 0.000179 -0.000119 1.806697 26.072487 -30.950836 328.732849
24 328.732849 0.000179 -0.000119 3.778795 20.617540 -28.972727 328.732849
[Rope2_Seg01]
23 -0.000060 -0.000107 0.000000 94.047447 5.110885 34.994411 0.000122
24 -0.000059 -0.000103 0.000000 81.045372 62.288532 19.261002 0.000119
[Rope2_Seg02]
23 139.999741 -0.000060 -0.000119 8.333962 17.536423 28.269119 139.999756
24 139.999741 -0.000060 -0.000119 -0.161641 6.573489 18.757044 139.999756
[Rope2_Seg03]
23 140.000107 0.000030 0.000000 1.271404 9.110148 11.394209 140.000107
24 140.000107 0.000030 0.000000 2.986967 9.584039 35.155029 140.000107
[Rope2_Seg04]
23 139.999802 0.000000 -0.000060 0.070537 2.419652 5.367515 139.999802
24 139.999802 0.000000 -0.000060 4.020345 6.964295 27.600292 139.999802
[Rope2_Seg05]
23 139.999985 -0.000060 0.000119 -0.032957 0.422968 2.682398 139.999985
24 139.999985 -0.000060 0.000119 2.110724 9.473356 11.686421 139.999985
[Rope2_Seg06]
23 139.999893 -0.000030 -0.000119 -0.027738 0.674808 1.727655 139.999893
24 139.999893 -0.000030 -0.000119 0.463915 9.403298 6.941790 139.999893
[Rope2_Seg07]
23 139.999893 0.000060 -0.000060 -0.038184 0.462038 1.158842 139.999893
24 139.999893 0.000060 -0.000060 -0.333534 4.570720 4.756254 139.999893
[Rope2_Seg09]
23 121.338966 0.000089 -0.000060 33.793236 -1.359788 -0.847141 121.338966
24 121.338966 0.000089 -0.000060 33.793236 -1.359788 -0.847141 121.338966
[R_mid_hand01]
23 104.680779 11.144459 -10.335981 -23.980085 42.262276 59.248211 105.778534
24 104.680779 11.144459 -10.335981 -21.077957 43.559654 63.514469 105.778534
[R_mid_hand02]
23 104.070427 2.443552 8.231699 59.529942 -60.717213 27.702374 104.424065
24 104.070427 2.443552 8.231699 56.113014 -63.580811 31.562008 104.424065
[R_mid_hand03]
23 106.028137 -11.221827 -5.996406 -174.753189 14.937832 -67.669350 106.788818
24 106.028137 -11.221827 -5.996406 -175.658295 15.220740 -71.161583 106.788818
[spine02]
23 129.756927 0.001550 0.000119 0.531770 -4.024696 -15.372842 129.756927
24 129.756927 0.001550 0.000119 0.528083 -4.025184 -15.314452 129.756927
[spine03]
23 78.614037 0.081740 -4.898999 1.997081 3.779038 18.002102 78.766571
24 78.614037 0.081740 -4.898999 1.994565 3.781239 17.956976 78.766571
[pelvis]
23 169.435242 0.051022 0.000000 -4.659971 -0.219978 -11.522045 169.435257
24 169.435242 0.051022 0.000000 -13.435205 -0.351641 -12.095679 169.435257
[null_rope03_connect]
23 -1.257226 -2.466202 137.391083 179.592865 -2.868551 86.318260 137.418976
24 -1.257226 -2.466202 137.391083 -179.970383 -8.722039 86.959038 137.418976
[null_rope04_connect]
23 -1.259640 -2.480268 -137.844437 179.592865 -2.868551 86.318260 137.872513
24 -1.259640 -2.480268 -137.844437 -179.970383 -8.722039 86.959038 137.872513
[Rope3_Seg01]
23 0.000000 0.000000 0.000000 -111.934837 -35.519161 67.187927 0.000000
24 0.000000 0.000000 0.000000 -114.985359 -41.757431 73.062271 0.000000
[Rope3_Seg02]
23 139.999924 -0.000119 0.000060 -0.095198 0.676044 2.028990 139.999924
24 139.999924 -0.000119 0.000060 -1.971453 -6.457495 6.646172 139.999924
[Rope3_Seg03]
23 139.999924 -0.000119 0.000119 -1.615911 -2.267316 4.437707 139.999924
24 139.999924 -0.000119 0.000119 -4.555143 -11.259562 11.184628 139.999924
[Rope3_Seg04]
23 139.999924 0.000119 0.000000 0.362303 1.690111 0.976488 139.999924
24 139.999924 0.000119 0.000000 -1.332687 -3.748008 3.108862 139.999924
[Rope3_Seg05]
23 139.999924 -0.000238 0.000060 5.452178 12.538263 -9.283551 139.999924
24 139.999924 -0.000238 0.000060 2.863430 15.267956 -13.494612 139.999924
[Rope3_Seg06]
23 139.999893 -0.000119 -0.000060 3.076102 5.843057 -5.332353 139.999893
24 139.999893 -0.000119 -0.000060 1.814978 9.832008 -10.122706 139.999893
[Rope3_Seg07]
23 139.999771 0.000060 -0.000119 1.898212 3.024837 -2.961956 139.999771
24 139.999771 0.000060 -0.000119 1.108940 4.587503 -5.133245 139.999771
[Rope3_Seg08]
23 139.999985 -0.000060 0.000000 1.358373 1.764849 -1.847317 139.999985
24 139.999985 -0.000060 0.000000 0.560244 0.165820 -0.195362 139.999985
[Rope3_Seg09]
23 90.185997 -0.000179 -0.000060 89.793228 -1.359877 -0.847183 90.185997
24 90.185997 -0.000179 -0.000060 89.793228 -1.359877 -0.847183 90.185997
[R_rear_hand01]
23 103.366196 -6.073594 -10.757982 -174.043228 23.976633 -65.003006 104.101845
24 103.366196 -6.073594 -10.757982 -175.487610 24.273655 -68.532684 104.101845
[R_rear_hand02]
23 100.509819 12.039542 -7.992327 -18.533081 34.659100 62.503910 101.543350
24 100.509819 12.039542 -7.992327 -16.360674 35.627865 66.274071 101.543350
[R_rear_hand03]
23 101.539970 5.215704 5.435467 76.952393 -63.971798 15.629129 101.819031
24 101.539970 5.215704 5.435467 75.232674 -67.112549 17.511583 101.819031
[Rope4_Seg01]
23 0.000010 0.000021 -0.000085 54.135769 -35.692772 73.663475 0.000089
24 0.000010 0.000021 -0.000082 52.119160 -39.921135 78.534073 0.000085
[Rope4_Seg02]
23 139.999985 0.000060 0.000119 0.578063 -12.204283 -6.131139 139.999985
24 139.999985 0.000060 0.000119 0.537008 -5.854798 -0.397191 139.999985
[Rope4_Seg03]
23 139.999924 0.000000 -0.000238 -1.814787 -10.596938 -9.303926 139.999924
24 139.999924 0.000000 -0.000238 -0.363784 -8.153791 -6.361921 139.999924
[Rope4_Seg04]
23 139.999985 0.000000 0.000119 2.263134 -4.062367 0.847029 139.999985
24 139.999985 0.000000 0.000119 3.534287 -1.062743 8.433154 139.999985
[Rope4_Seg05]
23 139.999802 -0.000060 -0.000119 7.504901 2.393397 11.265748 139.999802
24 139.999802 -0.000060 -0.000119 4.449022 6.018603 16.592228 139.999802
[Rope4_Seg06]
23 139.999924 0.000000 0.000060 3.204472 1.933891 6.021187 139.999924
24 139.999924 0.000000 0.000060 0.814851 2.236536 6.124749 139.999924
[Rope4_Seg07]
23 139.999802 0.000000 0.000000 1.610419 0.911737 3.195375 139.999802
24 139.999802 0.000000 0.000000 0.360050 1.404996 3.800412 139.999802
[Rope4_Seg08]
23 139.999924 0.000000 0.000119 -0.610621 0.630620 1.996516 139.999924
24 139.999924 0.000000 0.000119 -1.396196 0.855498 2.271575 139.999924
[Rope4_Seg09]
23 90.185791 0.000060 0.000060 -135.617828 2.228885 0.850567 90.185791
24 90.185791 0.000060 0.000060 -135.617828 2.228885 0.850567 90.185791
[L_rear_hand01]
23 101.696655 -8.392275 -7.654577 -13.808597 -36.569187 109.397408 102.329041
24 101.696655 -8.392275 -7.654577 -13.120159 -36.794422 108.245644 102.329041
[L_rear_hand02]
23 102.726799 -1.568258 5.773216 72.647568 70.590691 159.713425 102.900848
24 102.726799 -1.568258 5.773216 71.814781 71.499916 158.834518 102.900848
[L_rear_hand03]
23 104.552910 9.721220 -10.420293 -177.121994 -24.509382 -107.501068 105.519653
24 104.552910 9.721220 -10.420293 -177.560242 -24.552065 -106.452408 105.519653
